<svg width="100" height="11" viewBox="0 0 100 11" fill="none" xmlns="http://www.w3.org/2000/svg">
<path d="M7.06953 2.82V10.5H3.75453V2.82H0.364531V0.18H10.4445V2.82H7.06953ZM11.9547 0.18H20.8797V2.655H15.2697V4.08H20.0697V6.45H15.2697V8.025H20.9847V10.5H11.9547V0.18ZM27.6999 -7.15256e-07C29.2299 -7.15256e-07 30.4399 0.384999 31.3299 1.155C32.2199 1.915 32.6649 3.005 32.6649 4.425H29.4999C29.4999 3.825 29.3399 3.35 29.0199 3C28.7099 2.65 28.2649 2.475 27.6849 2.475C27.0149 2.475 26.5199 2.685 26.1999 3.105C25.8899 3.525 25.7349 4.11 25.7349 4.86V5.82C25.7349 6.56 25.8899 7.145 26.1999 7.575C26.5199 7.995 27.0049 8.205 27.6549 8.205C28.2949 8.205 28.7799 8.04 29.1099 7.71C29.4399 7.38 29.6049 6.915 29.6049 6.315H32.6649C32.6649 7.725 32.2299 8.805 31.3599 9.555C30.4999 10.305 29.2799 10.68 27.6999 10.68C25.9399 10.68 24.6049 10.23 23.6949 9.33C22.7949 8.43 22.3449 7.1 22.3449 5.34C22.3449 3.58 22.7949 2.25 23.6949 1.35C24.6049 0.449999 25.9399 -7.15256e-07 27.6999 -7.15256e-07ZM41.4147 10.5V6.585H37.7697V10.5H34.4547V0.18H37.7697V3.945H41.4147V0.18H44.7297V10.5H41.4147ZM59.325 10.5L54.99 5.49V10.5H51.945V0.18H54.84L59.175 5.265V0.18H62.22V10.5H59.325ZM64.4401 0.18H73.3651V2.655H67.7551V4.08H72.5551V6.45H67.7551V8.025H73.4701V10.5H64.4401V0.18ZM83.0203 10.5L81.6853 4.215H81.6253L80.2903 10.5H76.6453L74.2303 0.18H77.6803L78.8653 6.03H78.9253L80.0953 0.18H83.3653L84.6103 6.03H84.6703L85.7803 0.18H89.0803L86.6653 10.5H83.0203ZM94.6003 -7.15256e-07C95.9203 -7.15256e-07 97.0053 0.269999 97.8553 0.81C98.7053 1.34 99.1403 2.13 99.1603 3.18V3.36H96.0553V3.3C96.0553 3 95.9453 2.75 95.7253 2.55C95.5053 2.35 95.1703 2.25 94.7203 2.25C94.2803 2.25 93.9403 2.315 93.7003 2.445C93.4703 2.575 93.3553 2.735 93.3553 2.925C93.3553 3.195 93.5153 3.395 93.8353 3.525C94.1553 3.655 94.6703 3.79 95.3803 3.93C96.2103 4.1 96.8903 4.28 97.4203 4.47C97.9603 4.65 98.4303 4.95 98.8303 5.37C99.2303 5.79 99.4353 6.36 99.4453 7.08C99.4453 8.3 99.0303 9.205 98.2003 9.795C97.3803 10.385 96.2803 10.68 94.9003 10.68C93.2903 10.68 92.0353 10.41 91.1353 9.87C90.2453 9.33 89.8003 8.375 89.8003 7.005H92.9353C92.9353 7.525 93.0703 7.875 93.3403 8.055C93.6103 8.225 94.0303 8.31 94.6003 8.31C95.0203 8.31 95.3653 8.265 95.6353 8.175C95.9153 8.085 96.0553 7.9 96.0553 7.62C96.0553 7.37 95.9003 7.185 95.5903 7.065C95.2903 6.935 94.7953 6.8 94.1053 6.66C93.2653 6.48 92.5703 6.295 92.0203 6.105C91.4703 5.905 90.9903 5.58 90.5803 5.13C90.1703 4.68 89.9653 4.07 89.9653 3.3C89.9653 2.17 90.4003 1.34 91.2703 0.81C92.1503 0.269999 93.2603 -7.15256e-07 94.6003 -7.15256e-07Z" fill="#60A5FA"/>
</svg>
